<?xml version="1.0" encoding="UTF-8"?>
<svg version="1.1" xmlns="http://www.w3.org/2000/svg" width="1920" height="1080">
<path d="M0 0 C633.6 0 1267.2 0 1920 0 C1920 356.4 1920 712.8 1920 1080 C1286.4 1080 652.8 1080 0 1080 C0 723.6 0 367.2 0 0 Z " fill="#3D3B3C" transform="translate(0,0)"/>
<path d="M0 0 C633.6 0 1267.2 0 1920 0 C1920 356.4 1920 712.8 1920 1080 C1286.4 1080 652.8 1080 0 1080 C0 723.6 0 367.2 0 0 Z M133 182 C133 452.27 133 722.54 133 1001 C678.16 1001 1223.32 1001 1785 1001 C1785 730.73 1785 460.46 1785 182 C1239.84 182 694.68 182 133 182 Z " fill="#000000" transform="translate(0,0)"/>
<path d="M0 0 C545.16 0 1090.32 0 1652 0 C1652 270.27 1652 540.54 1652 819 C1106.84 819 561.68 819 0 819 C0 548.73 0 278.46 0 0 Z M7 7 C7 272.65 7 538.3 7 812 C547.54 812 1088.08 812 1645 812 C1645 546.35 1645 280.7 1645 7 C1104.46 7 563.92 7 7 7 Z " fill="#0B24F3" transform="translate(133,182)"/>
<path d="M0 0 C159.39 0 318.78 0 483 0 C483 22.44 483 44.88 483 68 C323.61 68 164.22 68 0 68 C0 45.56 0 23.12 0 0 Z " fill="#0028A7" transform="translate(161,58)"/>
<path d="M0 0 C159.06 0 318.12 0 482 0 C482 22.44 482 44.88 482 68 C322.94 68 163.88 68 0 68 C0 45.56 0 23.12 0 0 Z " fill="#0029A8" transform="translate(1278,58)"/>
</svg>
